<svg width="34" height="50" viewBox="0 0 34 50" fill="none" xmlns="http://www.w3.org/2000/svg">
<g filter="url(#filter0_d_946_98)">
<circle cx="17" cy="25" r="15" fill="#FFCC32"/>
<path d="M18.7951 34.17C18.7951 34.69 18.6251 35.13 18.2851 35.49C17.9451 35.83 17.5151 36 16.9951 36C16.4751 36 16.0451 35.83 15.7051 35.49C15.3651 35.13 15.1951 34.69 15.1951 34.17V21.78C15.1951 21.26 15.3651 20.83 15.7051 20.49C16.0451 20.13 16.4751 19.95 16.9951 19.95C17.5151 19.95 17.9451 20.13 18.2851 20.49C18.6251 20.83 18.7951 21.26 18.7951 21.78V34.17ZM16.9651 18C16.2851 18 15.8051 17.89 15.5251 17.67C15.2451 17.45 15.1051 17.06 15.1051 16.5V15.93C15.1051 15.35 15.2551 14.96 15.5551 14.76C15.8751 14.54 16.3551 14.43 16.9951 14.43C17.6951 14.43 18.1851 14.54 18.4651 14.76C18.7451 14.98 18.8851 15.37 18.8851 15.93V16.5C18.8851 17.08 18.7351 17.48 18.4351 17.7C18.1351 17.9 17.6451 18 16.9651 18Z" fill="white"/>
</g>
<defs>
<filter id="filter0_d_946_98" x="0" y="10" width="34" height="34" filterUnits="userSpaceOnUse" color-interpolation-filters="sRGB">
<feFlood flood-opacity="0" result="BackgroundImageFix"/>
<feColorMatrix in="SourceAlpha" type="matrix" values="0 0 0 0 0 0 0 0 0 0 0 0 0 0 0 0 0 0 127 0" result="hardAlpha"/>
<feOffset dy="2"/>
<feGaussianBlur stdDeviation="1"/>
<feComposite in2="hardAlpha" operator="out"/>
<feColorMatrix type="matrix" values="0 0 0 0 0 0 0 0 0 0 0 0 0 0 0 0 0 0 0.15 0"/>
<feBlend mode="normal" in2="BackgroundImageFix" result="effect1_dropShadow_946_98"/>
<feBlend mode="normal" in="SourceGraphic" in2="effect1_dropShadow_946_98" result="shape"/>
</filter>
</defs>
</svg>