<svg width="42" height="48" viewBox="0 0 42 48" fill="none" xmlns="http://www.w3.org/2000/svg">
<g clip-path="url(#clip0_1360_271)" filter="url(#filter0_d_1360_271)">
<path d="M37.09 7.51242C37.09 5.35044 35.3309 3.59135 33.1689 3.59135H30.2842H21.3331V1.99819C21.3331 0.894539 20.5924 0 19.6779 0H12.6243C11.7105 0 10.9691 0.894539 10.9691 1.99819V3.59209H8.83123C6.66924 3.59209 4.91016 5.35117 4.91016 7.51316C4.91016 9.09174 5.84796 10.4551 7.19538 11.0766V13.6622C5.84796 14.2836 4.91016 15.647 4.91016 17.2256C4.91016 18.8042 5.84796 20.1676 7.19538 20.789V23.3746C5.84796 23.9954 4.91016 25.3594 4.91016 26.938C4.91016 28.5166 5.84796 29.88 7.19538 30.5014V32.5156C5.84796 33.137 4.91016 34.5004 4.91016 36.079C4.91016 38.241 6.66924 40.0001 8.83123 40.0001H33.1689C35.3309 40.0001 37.09 38.241 37.09 36.079C37.09 34.5004 36.1522 33.137 34.8047 32.5156V30.5013C36.1522 29.8799 37.09 28.5165 37.09 26.9379C37.09 25.3594 36.1522 23.996 34.8047 23.3745V20.7889C36.1522 20.1675 37.09 18.8041 37.09 17.2255C37.09 15.6469 36.1522 14.2835 34.8047 13.6621V11.0758C36.1522 10.4551 37.09 9.09165 37.09 7.51242ZM33.1689 18.4817H32.1405V25.6798H33.1689C33.8629 25.6798 34.4258 26.2426 34.4258 26.9366C34.4258 27.6307 33.8629 28.1935 33.1689 28.1935H32.1405V34.8207H33.1689C33.8629 34.8207 34.4258 35.3836 34.4258 36.0776C34.4258 36.7716 33.8629 37.3345 33.1689 37.3345H8.83123C8.1372 37.3345 7.57435 36.7716 7.57435 36.0776C7.57435 35.3836 8.1372 34.8207 8.83123 34.8207H9.85966V28.1935H8.83123C8.1372 28.1935 7.57435 27.6307 7.57435 26.9366C7.57435 26.2426 8.1372 25.6798 8.83123 25.6798H9.85966V18.4817H8.83123C8.1372 18.4817 7.57435 17.9189 7.57435 17.2249C7.57435 16.5308 8.1372 15.968 8.83123 15.968H9.85966V8.76988H8.83123C8.1372 8.76988 7.57435 8.20703 7.57435 7.513C7.57435 6.81897 8.1372 6.25612 8.83123 6.25612H10.9693H11.7159H21.3331H30.2835H33.1682C33.8623 6.25612 34.4251 6.81897 34.4251 7.513C34.4251 8.20703 33.8623 8.76988 33.1682 8.76988H32.1398V15.968H33.1682C33.8623 15.968 34.4251 16.5308 34.4251 17.2249C34.4251 17.9189 33.8629 18.4817 33.1689 18.4817Z" fill="#010002"/>
<path d="M20.9999 9.89966C20.9999 9.89966 20.2899 10.9107 19.3121 12.5119C15.5609 18.6522 7.85391 33.494 20.9999 33.494C36.16 33.494 23.5882 13.7561 21.3329 10.3885C21.1224 10.0748 20.9999 9.89966 20.9999 9.89966ZM21.8977 29.2912C23.6807 28.4679 23.9651 26.7861 23.5276 25.0044C23.1573 23.4951 25.4804 22.855 25.8515 24.3636C26.5275 27.1164 25.8801 30.095 23.114 31.3719C21.7132 32.0181 20.4883 29.9419 21.8977 29.2912Z" fill="#010002"/>
</g>
<defs>
<filter id="filter0_d_1360_271" x="-3" y="0" width="48" height="48" filterUnits="userSpaceOnUse" color-interpolation-filters="sRGB">
<feFlood flood-opacity="0" result="BackgroundImageFix"/>
<feColorMatrix in="SourceAlpha" type="matrix" values="0 0 0 0 0 0 0 0 0 0 0 0 0 0 0 0 0 0 127 0" result="hardAlpha"/>
<feOffset dy="4"/>
<feGaussianBlur stdDeviation="2"/>
<feComposite in2="hardAlpha" operator="out"/>
<feColorMatrix type="matrix" values="0 0 0 0 0 0 0 0 0 0 0 0 0 0 0 0 0 0 0.25 0"/>
<feBlend mode="normal" in2="BackgroundImageFix" result="effect1_dropShadow_1360_271"/>
<feBlend mode="normal" in="SourceGraphic" in2="effect1_dropShadow_1360_271" result="shape"/>
</filter>
<clipPath id="clip0_1360_271">
<rect width="40" height="40" fill="white" transform="translate(1)"/>
</clipPath>
</defs>
</svg>


