<svg width="40" height="40" viewBox="0 0 40 40" fill="none" xmlns="http://www.w3.org/2000/svg">
<path d="M26.6668 6.66667C26.6668 6.22464 26.4912 5.80072 26.1787 5.48816C25.8661 5.17559 25.4422 5 25.0002 5H15.0002C14.5581 5 14.1342 5.17559 13.8217 5.48816C13.5091 5.80072 13.3335 6.22464 13.3335 6.66667V18.3333H26.6668V6.66667Z" fill="black"/>
<path d="M5 23.3334V33.3334C5 33.7754 5.17559 34.1994 5.48816 34.5119C5.80072 34.8245 6.22464 35.0001 6.66667 35.0001H18.3333V21.6667H6.66667C6.22464 21.6667 5.80072 21.8423 5.48816 22.1549C5.17559 22.4675 5 22.8914 5 23.3334Z" fill="black"/>
<path d="M33.3332 21.6667H21.6665V35.0001H33.3332C33.7752 35.0001 34.1991 34.8245 34.5117 34.5119C34.8242 34.1994 34.9998 33.7754 34.9998 33.3334V23.3334C34.9998 22.8914 34.8242 22.4675 34.5117 22.1549C34.1991 21.8423 33.7752 21.6667 33.3332 21.6667Z" fill="black"/>
</svg>

