
<svg width="40" height="40" viewBox="0 0 40 40" fill="none" xmlns="http://www.w3.org/2000/svg">
<path d="M38.2259 35.1744L33.9831 30.9316C35.1602 29.3858 35.8688 27.463 35.8688 25.3773C35.865 22.939 34.8943 20.6017 33.1696 18.8781C31.445 17.1545 29.1071 16.1853 26.6688 16.183C24.2315 16.1868 21.8951 17.1567 20.1716 18.8801C18.4482 20.6035 17.4783 22.94 17.4745 25.3773C17.4768 27.8161 18.4464 30.1544 20.1706 31.8791C21.8948 33.6039 24.2328 34.5742 26.6716 34.5773C28.7602 34.5773 30.6831 33.8687 32.2259 32.6916L36.4688 36.9316C36.5833 37.0474 36.7197 37.1394 36.87 37.2021C37.0203 37.2649 37.1816 37.2972 37.3445 37.2972C37.5074 37.2972 37.6687 37.2649 37.819 37.2021C37.9693 37.1394 38.1057 37.0474 38.2202 36.9316C38.3363 36.8167 38.4285 36.6801 38.4916 36.5295C38.5547 36.379 38.5875 36.2174 38.588 36.0542C38.5885 35.8909 38.5568 35.7292 38.4947 35.5782C38.4326 35.4272 38.3412 35.29 38.2259 35.1744ZM19.9573 25.3773C19.9596 23.5972 20.6677 21.8907 21.9264 20.6321C23.1851 19.3734 24.8916 18.6653 26.6716 18.663C28.4524 18.663 30.1602 19.3704 31.4194 20.6296C32.6785 21.8887 33.3859 23.5965 33.3859 25.3773C33.3859 27.158 32.6785 28.8658 31.4194 30.125C30.1602 31.3842 28.4524 32.0916 26.6716 32.0916C24.8918 32.0885 23.1858 31.3802 21.9273 30.1217C20.6687 28.8631 19.9604 27.1571 19.9573 25.3773ZM30.5145 10.5916C30.5145 11.2773 29.9573 11.8316 29.2716 11.8316H16.8516C16.5228 11.8316 16.2074 11.7009 15.9748 11.4684C15.7423 11.2358 15.6116 10.9204 15.6116 10.5916C15.6116 10.2627 15.7423 9.94729 15.9748 9.71474C16.2074 9.4822 16.5228 9.35156 16.8516 9.35156H29.2716C29.9573 9.35156 30.5145 9.90584 30.5145 10.5916ZM6.70878 34.8116H14.9888C15.3038 34.8329 15.599 34.9732 15.8146 35.2039C16.0302 35.4346 16.1502 35.7386 16.1502 36.0544C16.1502 36.3702 16.0302 36.6742 15.8146 36.9049C15.599 37.1357 15.3038 37.2759 14.9888 37.2973H6.70878C4.42878 37.2973 2.56592 35.4401 2.56592 33.1544V11.0573C2.56592 10.5001 2.76592 9.96013 3.12306 9.53156L9.39163 2.07441C9.60185 1.82424 9.86419 1.62302 10.1603 1.48483C10.4564 1.34664 10.7791 1.27483 11.1059 1.27441H31.3402C33.6231 1.27441 35.4831 3.13156 35.4831 5.41727V14.3144C35.4831 14.644 35.3521 14.9602 35.119 15.1932C34.886 15.4263 34.5698 15.5573 34.2402 15.5573C33.9106 15.5573 33.5945 15.4263 33.3614 15.1932C33.1283 14.9602 32.9973 14.644 32.9973 14.3144V5.41441C32.9966 4.9764 32.8225 4.55649 32.513 4.2465C32.2035 3.9365 31.7839 3.76164 31.3459 3.76013H13.1259V10.943C13.1206 11.4666 12.9081 11.9669 12.5349 12.3342C12.1617 12.7015 11.6581 12.906 11.1345 12.903H5.05449V33.1573C5.05449 34.0687 5.79735 34.8116 6.70878 34.8116ZM10.6431 4.44584L5.62306 10.4173H10.6431V4.44584ZM13.7488 23.0458C14.0784 23.0458 14.3945 22.9149 14.6276 22.6818C14.8607 22.4487 14.9916 22.1326 14.9916 21.803C14.9916 21.4734 14.8607 21.1572 14.6276 20.9242C14.3945 20.6911 14.0784 20.5601 13.7488 20.5601H9.4002C9.07058 20.5601 8.75445 20.6911 8.52137 20.9242C8.28829 21.1572 8.15735 21.4734 8.15735 21.803C8.15735 22.1326 8.28829 22.4487 8.52137 22.6818C8.75445 22.9149 9.07058 23.0458 9.4002 23.0458H13.7488ZM13.7488 28.7516C14.078 28.7516 14.3938 28.6208 14.6266 28.388C14.8594 28.1551 14.9902 27.8394 14.9902 27.5101C14.9902 27.1809 14.8594 26.8651 14.6266 26.6323C14.3938 26.3995 14.078 26.2687 13.7488 26.2687H9.4002C9.07096 26.2687 8.75519 26.3995 8.52238 26.6323C8.28957 26.8651 8.15878 27.1809 8.15878 27.5101C8.15878 27.8394 8.28957 28.1551 8.52238 28.388C8.75519 28.6208 9.07096 28.7516 9.4002 28.7516H13.7488ZM14.9888 14.9544H9.4002C9.07096 14.9544 8.75519 15.0852 8.52238 15.318C8.28957 15.5508 8.15878 15.8666 8.15878 16.1958C8.15878 16.5251 8.28957 16.8409 8.52238 17.0737C8.75519 17.3065 9.07096 17.4373 9.4002 17.4373H14.9888C15.318 17.4373 15.6338 17.3065 15.8666 17.0737C16.0994 16.8409 16.2302 16.5251 16.2302 16.1958C16.2302 15.8666 16.0994 15.5508 15.8666 15.318C15.6338 15.0852 15.318 14.9544 14.9888 14.9544Z" fill="black"/>
</svg>

