<svg width="40" height="40" viewBox="0 0 40 40" fill="none" xmlns="http://www.w3.org/2000/svg">
<g clip-path="url(#clip0_1388_85)">
<path d="M7.03902 33.1274L12.7435 22.017L12.7425 22.0165C12.9327 21.641 13.2152 21.3003 13.5491 21.0566C13.8867 20.8103 14.2774 20.6597 14.6871 20.6597H27.8082V18.79C27.8082 18.551 27.7158 18.3349 27.5645 18.1728C27.4063 18.0032 27.1854 17.8903 26.9381 17.8675L27.0504 16.6273C27.6137 16.679 28.1168 16.9364 28.4776 17.3232C28.8381 17.7095 29.0582 18.2231 29.0582 18.79V20.6597H34.0759L34.0808 20.6621C34.3511 20.6646 34.6117 20.7329 34.8384 20.8567C35.0688 20.9825 35.2658 21.1659 35.4058 21.3967C35.545 21.6262 35.6251 21.8976 35.6224 22.1997C35.6197 22.4894 35.5411 22.804 35.3633 23.1295L35.3631 23.1295L30.0652 33.0232L30.066 33.0237C29.8833 33.3702 29.5434 33.7171 29.1603 33.9656C28.7854 34.2088 28.3509 34.372 27.9515 34.372V34.3696L6.69308 34.3726V34.375C6.38763 34.375 6.08843 34.3151 5.81082 34.2019C5.53336 34.0888 5.27732 33.9212 5.05803 33.7058C4.83907 33.4897 4.66829 33.2354 4.55253 32.9592C4.43643 32.6822 4.375 32.3839 4.375 32.0806H4.37745L4.38051 16.0421H4.37807C4.37807 15.409 4.63925 14.8341 5.06172 14.4172C5.48074 14.0036 6.058 13.7475 6.69462 13.7475V13.7499L8.24837 13.7471V14.9922L6.69462 14.9951V14.9975C6.39681 14.9975 6.12866 15.1154 5.93574 15.3058C5.74563 15.4935 5.6281 15.7539 5.6281 16.0421H5.62565L5.62259 32.0806H5.62503C5.62503 32.2202 5.65267 32.3561 5.70489 32.4807C5.75733 32.6058 5.8341 32.7204 5.93205 32.8171C6.03157 32.9149 6.14981 32.9918 6.27957 33.0447C6.40839 33.0972 6.54862 33.125 6.69308 33.125V33.1275L7.03902 33.1274ZM13.8534 22.5805L8.43833 33.1272L27.9515 33.1244V33.122C28.1023 33.122 28.296 33.0411 28.4817 32.9207C28.696 32.7817 28.877 32.605 28.9626 32.4427L28.965 32.4402L34.2671 22.5387L34.2695 22.5338C34.3437 22.398 34.3764 22.2832 34.3772 22.1899C34.3778 22.1293 34.3645 22.0794 34.3413 22.0412C34.3189 22.0043 34.2846 21.9734 34.2427 21.9505C34.1937 21.9237 34.1364 21.9086 34.0759 21.9073V21.9097H28.4332H27.8082H14.6871C14.5518 21.9097 14.4115 21.9677 14.2815 22.0625C14.11 22.1877 13.9608 22.3708 13.8558 22.5781L13.8534 22.5805Z" fill="#212121"/>
<path d="M8.75228 27.2598L8.75245 7.48265H8.75C8.75 6.94405 8.97579 6.39555 9.33322 5.99087C9.69242 5.58419 10.1894 5.31152 10.7406 5.31152H21.5218C21.6934 5.31152 21.8644 5.34949 22.024 5.42057C22.1786 5.48934 22.32 5.59123 22.4375 5.72127L25.919 9.57138L25.9201 9.57039C26.0256 9.68518 26.1076 9.81904 26.1636 9.9641C26.2203 10.1113 26.25 10.2651 26.25 10.4178H26.2475L26.2475 19.8434H25.0023L25.0024 10.4178H24.9999C24.9999 10.4135 25.0014 10.4147 25.0017 10.4143L24.9996 10.4102L21.5195 6.56155H10.7407C10.57 6.56155 10.4004 6.66372 10.2658 6.81606C10.103 7.0005 10 7.24581 10 7.48265H9.9976L9.99744 27.2598L8.75228 27.2598ZM21.5163 6.55804L21.5162 6.55821C21.5161 6.55788 21.5134 6.55491 21.5147 6.55625L21.5163 6.55804ZM21.5162 6.55821L21.5162 6.55825C21.514 6.55731 21.5151 6.55786 21.5169 6.55876L21.5163 6.55804L21.5162 6.55821Z" fill="#212121"/>
<path d="M13.125 11.25C12.7798 11.25 12.5 11.5298 12.5 11.875C12.5 12.2202 12.7798 12.5 13.125 12.5H21.875C22.2202 12.5 22.5001 12.2202 22.5001 11.875C22.5001 11.5298 22.2202 11.25 21.875 11.25H13.125Z" fill="#212121"/>
<path d="M13.125 14.375C12.7798 14.375 12.5 14.6548 12.5 15C12.5 15.3452 12.7798 15.625 13.125 15.625H21.875C22.2202 15.625 22.5001 15.3452 22.5001 15C22.5001 14.6548 22.2202 14.375 21.875 14.375H13.125Z" fill="#212121"/>
<path d="M13.125 17.5C12.7798 17.5 12.5 17.7798 12.5 18.125C12.5 18.4702 12.7798 18.75 13.125 18.75H21.875C22.2202 18.75 22.5001 18.4702 22.5001 18.125C22.5001 17.7798 22.2202 17.5 21.875 17.5H13.125Z" fill="#212121"/>
</g>
<defs>
<clipPath id="clip0_1388_85">
<rect width="40" height="40" fill="white"/>
</clipPath>
</defs>
</svg>
