<svg width="40" height="40" viewBox="0 0 40 40" fill="none" xmlns="http://www.w3.org/2000/svg">
<path d="M6.4002 1.6001V4.8001H3.2002V38.4001H12.0002V31.2001H15.2002V38.4001H24.0002V4.8001H20.8002V1.6001H6.4002ZM8.0002 8.0001H9.6002V9.6001H8.0002V8.0001ZM11.2002 8.0001H12.8002V9.6001H11.2002V8.0001ZM14.4002 8.0001H16.0002V9.6001H14.4002V8.0001ZM17.6002 8.0001H19.2002V9.6001H17.6002V8.0001ZM25.6002 11.2001V14.4001H27.2002V16.0001H25.6002V17.6001H27.2002V19.2001H25.6002V20.8001H27.2002V22.4001H25.6002V24.0001H27.2002V25.6001H25.6002V27.2001H27.2002V28.8001H25.6002V30.4001H27.2002V32.0001H25.6002V33.6001H27.2002V35.2001H25.6002V38.4001H36.8002V11.2001H25.6002ZM8.0002 12.0001H9.6002V15.2001H8.0002V12.0001ZM11.2002 12.0001H12.8002V15.2001H11.2002V12.0001ZM14.4002 12.0001H16.0002V15.2001H14.4002V12.0001ZM17.6002 12.0001H19.2002V15.2001H17.6002V12.0001ZM28.8002 14.4001H30.4002V16.0001H28.8002V14.4001ZM32.0002 14.4001H33.6002V16.0001H32.0002V14.4001ZM8.0002 16.8001H9.6002V20.0001H8.0002V16.8001ZM11.2002 16.8001H12.8002V20.0001H11.2002V16.8001ZM14.4002 16.8001H16.0002V20.0001H14.4002V16.8001ZM17.6002 16.8001H19.2002V20.0001H17.6002V16.8001ZM28.8002 17.6001H30.4002V19.2001H28.8002V17.6001ZM32.0002 17.6001H33.6002V19.2001H32.0002V17.6001ZM28.8002 20.8001H30.4002V22.4001H28.8002V20.8001ZM32.0002 20.8001H33.6002V22.4001H32.0002V20.8001ZM8.0002 21.6001H9.6002V24.8001H8.0002V21.6001ZM11.2002 21.6001H12.8002V24.8001H11.2002V21.6001ZM14.4002 21.6001H16.0002V24.8001H14.4002V21.6001ZM17.6002 21.6001H19.2002V24.8001H17.6002V21.6001ZM28.8002 24.0001H30.4002V25.6001H28.8002V24.0001ZM32.0002 24.0001H33.6002V25.6001H32.0002V24.0001ZM8.0002 26.4001H9.6002V29.6001H8.0002V26.4001ZM11.2002 26.4001H12.8002V29.6001H11.2002V26.4001ZM14.4002 26.4001H16.0002V29.6001H14.4002V26.4001ZM17.6002 26.4001H19.2002V29.6001H17.6002V26.4001ZM28.8002 27.2001H30.4002V28.8001H28.8002V27.2001ZM32.0002 27.2001H33.6002V28.8001H32.0002V27.2001ZM28.8002 30.4001H30.4002V32.0001H28.8002V30.4001ZM32.0002 30.4001H33.6002V32.0001H32.0002V30.4001ZM8.0002 31.2001H9.6002V35.2001H8.0002V31.2001ZM17.6002 31.2001H19.2002V35.2001H17.6002V31.2001ZM28.8002 33.6001H30.4002V35.2001H28.8002V33.6001ZM32.0002 33.6001H33.6002V35.2001H32.0002V33.6001Z" fill="black"/>
</svg>


