<svg width="45" height="45" viewBox="0 0 45 45" fill="none" xmlns="http://www.w3.org/2000/svg">
<path d="M17.5499 14.4H27.4499C27.6886 14.4 27.9175 14.3052 28.0863 14.1364C28.2551 13.9676 28.3499 13.7387 28.3499 13.5V11.7C28.3499 10.9839 28.0654 10.2972 27.5591 9.79081C27.0527 9.28446 26.366 9 25.6499 9H19.3499C18.6338 9 17.9471 9.28446 17.4407 9.79081C16.9344 10.2972 16.6499 10.9839 16.6499 11.7V13.5C16.6499 13.7387 16.7447 13.9676 16.9135 14.1364C17.0823 14.3052 17.3112 14.4 17.5499 14.4ZM32.3999 11.25H31.4999C31.4398 11.246 31.3795 11.2549 31.3231 11.2761C31.2667 11.2974 31.2155 11.3304 31.1729 11.373C31.1303 11.4156 31.0973 11.4668 31.076 11.5232C31.0548 11.5796 31.0459 11.6399 31.0499 11.7V13.5C31.0499 14.4548 30.6706 15.3705 29.9955 16.0456C29.3204 16.7207 28.4047 17.1 27.4499 17.1H17.5499C16.5951 17.1 15.6795 16.7207 15.0043 16.0456C14.3292 15.3705 13.9499 14.4548 13.9499 13.5V11.7C13.9539 11.6399 13.945 11.5796 13.9238 11.5232C13.9026 11.4668 13.8695 11.4156 13.8269 11.373C13.7843 11.3304 13.7331 11.2974 13.6767 11.2761C13.6203 11.2549 13.56 11.246 13.4999 11.25H12.5999C11.8838 11.25 11.1971 11.5345 10.6907 12.0408C10.1844 12.5472 9.8999 13.2339 9.8999 13.95V33.3C9.8999 34.0161 10.1844 34.7028 10.6907 35.2092C11.1971 35.7155 11.8838 36 12.5999 36H32.3999C33.116 36 33.8027 35.7155 34.3091 35.2092C34.8154 34.7028 35.0999 34.0161 35.0999 33.3V13.95C35.0999 13.2339 34.8154 12.5472 34.3091 12.0408C33.8027 11.5345 33.116 11.25 32.3999 11.25ZM17.5499 30.6C17.5499 30.8387 17.4551 31.0676 17.2863 31.2364C17.1175 31.4052 16.8886 31.5 16.6499 31.5H15.7499C15.5112 31.5 15.2823 31.4052 15.1135 31.2364C14.9447 31.0676 14.8499 30.8387 14.8499 30.6V29.7C14.8499 29.4613 14.9447 29.2324 15.1135 29.0636C15.2823 28.8948 15.5112 28.8 15.7499 28.8H16.6499C16.8886 28.8 17.1175 28.8948 17.2863 29.0636C17.4551 29.2324 17.5499 29.4613 17.5499 29.7V30.6ZM17.5499 26.1C17.5499 26.3387 17.4551 26.5676 17.2863 26.7364C17.1175 26.9052 16.8886 27 16.6499 27H15.7499C15.5112 27 15.2823 26.9052 15.1135 26.7364C14.9447 26.5676 14.8499 26.3387 14.8499 26.1V25.2C14.8499 24.9613 14.9447 24.7324 15.1135 24.5636C15.2823 24.3948 15.5112 24.3 15.7499 24.3H16.6499C16.8886 24.3 17.1175 24.3948 17.2863 24.5636C17.4551 24.7324 17.5499 24.9613 17.5499 25.2V26.1ZM17.5499 21.6C17.5499 21.8387 17.4551 22.0676 17.2863 22.2364C17.1175 22.4052 16.8886 22.5 16.6499 22.5H15.7499C15.5112 22.5 15.2823 22.4052 15.1135 22.2364C14.9447 22.0676 14.8499 21.8387 14.8499 21.6V20.7C14.8499 20.4613 14.9447 20.2324 15.1135 20.0636C15.2823 19.8948 15.5112 19.8 15.7499 19.8H16.6499C16.8886 19.8 17.1175 19.8948 17.2863 20.0636C17.4551 20.2324 17.5499 20.4613 17.5499 20.7V21.6ZM30.1499 30.6C30.1499 30.8387 30.0551 31.0676 29.8863 31.2364C29.7175 31.4052 29.4886 31.5 29.2499 31.5H20.2499C20.0112 31.5 19.7823 31.4052 19.6135 31.2364C19.4447 31.0676 19.3499 30.8387 19.3499 30.6V29.7C19.3499 29.4613 19.4447 29.2324 19.6135 29.0636C19.7823 28.8948 20.0112 28.8 20.2499 28.8H29.2499C29.4886 28.8 29.7175 28.8948 29.8863 29.0636C30.0551 29.2324 30.1499 29.4613 30.1499 29.7V30.6ZM30.1499 26.1C30.1499 26.3387 30.0551 26.5676 29.8863 26.7364C29.7175 26.9052 29.4886 27 29.2499 27H20.2499C20.0112 27 19.7823 26.9052 19.6135 26.7364C19.4447 26.5676 19.3499 26.3387 19.3499 26.1V25.2C19.3499 24.9613 19.4447 24.7324 19.6135 24.5636C19.7823 24.3948 20.0112 24.3 20.2499 24.3H29.2499C29.4886 24.3 29.7175 24.3948 29.8863 24.5636C30.0551 24.7324 30.1499 24.9613 30.1499 25.2V26.1ZM30.1499 21.6C30.1499 21.8387 30.0551 22.0676 29.8863 22.2364C29.7175 22.4052 29.4886 22.5 29.2499 22.5H20.2499C20.0112 22.5 19.7823 22.4052 19.6135 22.2364C19.4447 22.0676 19.3499 21.8387 19.3499 21.6V20.7C19.3499 20.4613 19.4447 20.2324 19.6135 20.0636C19.7823 19.8948 20.0112 19.8 20.2499 19.8H29.2499C29.4886 19.8 29.7175 19.8948 29.8863 20.0636C30.0551 20.2324 30.1499 20.4613 30.1499 20.7V21.6Z" fill="black"/>
</svg>
