<svg width="46" height="48" viewBox="0 0 46 48" fill="none" xmlns="http://www.w3.org/2000/svg">
<g filter="url(#filter0_d_1360_253)">
<path d="M37.4062 36.4063V28.0938H34.75V20.5001L34.9531 20.5938C35.0625 20.6407 35.1563 20.6563 35.2813 20.6563C35.6094 20.6563 35.9219 20.4688 36.0625 20.1407L37.25 17.2657C37.3438 17.0626 37.3438 16.8282 37.25 16.6251C37.1562 16.4219 37 16.2657 36.7969 16.1719L18.6875 8.67193C19.3438 7.4063 19.9375 6.12505 20.4531 4.8438C20.625 4.42193 20.4219 3.93755 20 3.75005L12.8438 0.781304C12.4219 0.609429 11.9219 0.812552 11.75 1.2188C9.98438 5.37505 8.84375 9.98443 8.15625 15.7657C8.10938 16.1407 8.32812 16.5001 8.67187 16.6407L11.7344 17.9063C12.0781 18.0469 12.4844 17.9532 12.7031 17.6563C14.0313 15.9688 15.1719 14.3907 16.2188 12.8126L19.8437 14.3126L19.6719 15.5469L19.125 19.2813L16.6562 36.4063H4.54688V39.3594H41.125V36.4063H37.4062ZM24.7969 21.5313L21.8438 19.3282L24.1875 17.3438L24.7969 21.5313ZM25.2031 24.3907L26.0938 30.6251L21.25 26.9063L25.2031 24.3907ZM21.5781 15.0469L23.25 15.7501L21.2344 17.4532L21.5781 15.0469ZM20.75 20.8126L23.8125 23.0938L20.0781 25.4688L20.75 20.8126ZM19.7031 28.0313L24.7344 31.8907L18.5 36.4063L19.7031 28.0313ZM21.625 36.4063L26.4375 32.9219L26.9375 36.4063H21.625ZM26.3281 19.2969L25.9844 16.8751L33.0781 19.8125V28.1094H30.5156V36.4063H28.7969L26.3281 19.2969Z" fill="black"/>
</g>
<defs>
<filter id="filter0_d_1360_253" x="-1" y="0" width="48" height="48" filterUnits="userSpaceOnUse" color-interpolation-filters="sRGB">
<feFlood flood-opacity="0" result="BackgroundImageFix"/>
<feColorMatrix in="SourceAlpha" type="matrix" values="0 0 0 0 0 0 0 0 0 0 0 0 0 0 0 0 0 0 127 0" result="hardAlpha"/>
<feOffset dy="4"/>
<feGaussianBlur stdDeviation="2"/>
<feComposite in2="hardAlpha" operator="out"/>
<feColorMatrix type="matrix" values="0 0 0 0 0 0 0 0 0 0 0 0 0 0 0 0 0 0 0.25 0"/>
<feBlend mode="normal" in2="BackgroundImageFix" result="effect1_dropShadow_1360_253"/>
<feBlend mode="normal" in="SourceGraphic" in2="effect1_dropShadow_1360_253" result="shape"/>
</filter>
</defs>
</svg>
