<svg width="40" height="40" viewBox="0 0 40 40" fill="none" xmlns="http://www.w3.org/2000/svg">
<g clip-path="url(#clip0_1381_4)">
<path d="M11.8648 7.91675C15.5407 3.44635 19.1615 0.379047 19.3138 0.250719C19.7102 -0.0835729 20.2899 -0.0835729 20.6863 0.250719C20.8387 0.379047 24.4594 3.44646 28.1353 7.91675C33.1485 14.0132 35.6904 19.5286 35.6904 24.3094C35.6904 32.9612 28.6517 39.9999 19.9999 39.9999C11.3482 39.9999 4.30939 32.9612 4.30939 24.3094C4.30949 19.5287 6.85145 14.0132 11.8648 7.91675ZM18.343 34.8653C18.4795 34.9 18.6162 34.9156 18.7505 34.9156C19.4845 34.9156 20.1539 34.4204 20.3434 33.6771C20.5674 32.7978 20.0375 31.904 19.1585 31.6772C18.8582 31.5982 12.2773 29.7843 12.2776 23.1802C12.2776 22.2717 11.5411 21.535 10.6326 21.535C9.72398 21.535 8.98723 22.2715 8.98723 23.18C8.98659 30.5387 15.1054 34.0415 18.343 34.8653Z" fill="black"/>
</g>
<defs>
<clipPath id="clip0_1381_4">
<rect width="40" height="40" fill="white" transform="matrix(-1 0 0 1 40 0)"/>
</clipPath>
</defs>
</svg>
