<svg width="40" height="40" viewBox="0 0 40 40" fill="none" xmlns="http://www.w3.org/2000/svg">
<path d="M25 15C25 14.0111 24.7068 13.0444 24.1574 12.2222C23.6079 11.3999 22.8271 10.759 21.9134 10.3806C20.9998 10.0022 19.9945 9.90315 19.0246 10.0961C18.0546 10.289 17.1637 10.7652 16.4645 11.4645C15.7652 12.1637 15.289 13.0546 15.0961 14.0245C14.9031 14.9945 15.0022 15.9998 15.3806 16.9134C15.759 17.827 16.3999 18.6079 17.2222 19.1573C18.0444 19.7068 19.0111 20 20 20C21.3261 20 22.5979 19.4732 23.5355 18.5355C24.4732 17.5979 25 16.3261 25 15ZM18.3333 15C18.3333 14.6704 18.4311 14.3481 18.6142 14.0741C18.7974 13.8 19.0577 13.5863 19.3622 13.4602C19.6667 13.3341 20.0019 13.3011 20.3252 13.3654C20.6485 13.4297 20.9454 13.5884 21.1785 13.8215C21.4116 14.0546 21.5703 14.3515 21.6346 14.6749C21.699 14.9982 21.6659 15.3333 21.5398 15.6378C21.4137 15.9424 21.2 16.2026 20.926 16.3858C20.6519 16.5689 20.3296 16.6667 20 16.6667C19.558 16.6667 19.1341 16.4911 18.8215 16.1785C18.5089 15.866 18.3333 15.442 18.3333 15Z" fill="black"/>
<path d="M22.29 33.3335C25 30.3485 31.6667 22.2635 31.6667 15.0002C31.6667 11.906 30.4375 8.93851 28.2496 6.75058C26.0617 4.56266 23.0942 3.3335 20 3.3335C16.9058 3.3335 13.9383 4.56266 11.7504 6.75058C9.5625 8.93851 8.33333 11.906 8.33333 15.0002C8.33333 22.2635 15 30.3485 17.71 33.3335H5V36.6668H35V33.3335H22.29ZM20 6.66683C22.2093 6.66948 24.3274 7.5483 25.8896 9.11053C27.4519 10.6728 28.3307 12.7908 28.3333 15.0002C28.3333 20.9102 22.545 28.0385 20 30.8885C17.4517 28.0418 11.6667 20.9218 11.6667 15.0002C11.6693 12.7908 12.5481 10.6728 14.1104 9.11053C15.6726 7.5483 17.7907 6.66948 20 6.66683Z" fill="black"/>
</svg>


